<?xml version="1.0" encoding="UTF-8" standalone="no"?>
<!-- Created with Inkscape (http://www.inkscape.org/) -->

<svg
   width="51.739384mm"
   height="42.284504mm"
   viewBox="0 0 51.739384 42.284504"
   version="1.1"
   id="svg5"
   inkscape:version="1.1.2 (0a00cf5339, 2022-02-04)"
   sodipodi:docname="pony.svg"
   xmlns:inkscape="http://www.inkscape.org/namespaces/inkscape"
   xmlns:sodipodi="http://sodipodi.sourceforge.net/DTD/sodipodi-0.dtd"
   xmlns="http://www.w3.org/2000/svg"
   xmlns:svg="http://www.w3.org/2000/svg">
  <sodipodi:namedview
     id="namedview7"
     pagecolor="#ffffff"
     bordercolor="#666666"
     borderopacity="1.0"
     inkscape:pageshadow="2"
     inkscape:pageopacity="0.0"
     inkscape:pagecheckerboard="0"
     inkscape:document-units="mm"
     showgrid="false"
     fit-margin-top="0"
     fit-margin-left="0"
     fit-margin-right="0"
     fit-margin-bottom="0"
     inkscape:zoom="3.6510863"
     inkscape:cx="91.890459"
     inkscape:cy="112.43229"
     inkscape:window-width="2560"
     inkscape:window-height="1376"
     inkscape:window-x="0"
     inkscape:window-y="27"
     inkscape:window-maximized="1"
     inkscape:current-layer="layer1" />
  <defs
     id="defs2" />
  <g
     inkscape:label="Ebene 1"
     inkscape:groupmode="layer"
     id="layer1"
     transform="translate(-84.840276,-48.841717)">
    <path
       style="fill:#000000;stroke-width:0.0635"
       d="m 102.67717,91.092186 c -0.28894,-0.03052 -0.68899,-0.102716 -0.889,-0.160434 -0.89221,-0.257478 -1.00176,-0.495538 -0.99284,-2.157457 0.0102,-1.901154 0.52366,-4.536773 1.3051,-6.69925 0.55656,-1.540151 1.78983,-3.621015 2.42396,-4.089872 0.15111,-0.11173 0.29145,-0.135815 0.90487,-0.155288 l 0.72602,-0.02305 v -0.210802 c 0,-0.450697 -0.14619,-1.223132 -0.35902,-1.896932 -0.73035,-2.312227 -0.6897,-4.57337 0.10893,-6.05906 0.13755,-0.255888 0.25009,-0.486569 0.25009,-0.512623 0,-0.07733 -1.07559,-0.614362 -1.55575,-0.776774 -0.36093,-0.122085 -0.57582,-0.150352 -1.143,-0.150352 -0.63657,0 -0.73381,0.01631 -1.0968,0.183939 -0.81367,0.375752 -1.487,1.356625 -1.83531,2.67356 -0.14323,0.541524 -0.168,0.765868 -0.1683,1.524 -3.2e-4,0.782448 0.02,0.955838 0.16921,1.446647 0.31854,1.047547 0.92065,2.046168 1.77816,2.949132 l 0.45454,0.478641 -0.762,-0.02999 c -0.6906,-0.02718 -0.81533,-0.05148 -1.33122,-0.259322 -0.31307,-0.126131 -0.57948,-0.219072 -0.59201,-0.206536 -0.0125,0.01254 0.0475,0.246924 0.13332,0.520861 0.26234,0.836945 0.32979,1.369732 0.32431,2.561818 -0.006,1.257712 -0.10738,1.964097 -0.41659,2.896605 -0.297499,0.897178 -0.367569,0.944516 -0.370037,0.249993 -0.0018,-0.502327 -0.03466,-0.664182 -0.283766,-1.397 -0.154961,-0.455867 -0.331187,-0.943148 -0.391615,-1.082848 l -0.109868,-0.254 -0.04791,0.1905 c -0.02635,0.104775 -0.107137,0.427761 -0.17952,0.717748 -0.416353,1.668012 -1.939426,3.695994 -3.56889,4.752003 -0.998653,0.647197 -2.465246,1.110574 -4.088195,1.291682 -0.646832,0.07218 -2.033251,0.07984 -2.407837,0.01329 l -0.248836,-0.0442 0.375836,-0.238089 c 0.503147,-0.31874 1.200033,-0.966353 0.979087,-0.909862 -0.08731,0.02232 -0.47551,0.123835 -0.862661,0.225578 -0.967467,0.254253 -1.892343,0.344979 -2.995204,0.293817 -1.185781,-0.05501 -1.299009,-0.09652 -0.779737,-0.285855 0.647628,-0.236136 1.74362,-0.811516 2.467144,-1.295212 0.760172,-0.508198 1.724806,-1.426221 2.19078,-2.084925 0.589389,-0.833164 1.186178,-2.353741 1.186178,-3.022303 v -0.212897 l -0.428625,0.342347 c -0.937397,0.748707 -1.588187,1.113069 -2.555875,1.430973 -0.524336,0.172254 -1.468105,0.404716 -1.50269,0.37013 -0.0065,-0.0065 0.186826,-0.240213 0.429678,-0.519298 0.880463,-1.011828 1.594196,-2.128203 2.035921,-3.184454 0.503769,-1.204613 0.661945,-2.349947 0.752805,-5.450974 0.03479,-1.18745 0.093,-2.459037 0.129348,-2.825749 0.08357,-0.843077 0.318639,-1.912336 0.63454,-2.88631 0.135408,-0.417482 0.233662,-0.771593 0.218344,-0.786911 -0.01532,-0.01532 -0.190107,0.110769 -0.38842,0.280193 -0.313124,0.267509 -0.638567,0.640123 -1.217048,1.393448 l -0.145771,0.18983 0.04016,-0.28575 c 0.09173,-0.652667 0.241929,-1.280376 0.472875,-1.976201 0.991156,-2.986284 3.148625,-4.87728 6.192007,-5.427218 0.892383,-0.161254 2.862819,-0.162547 3.7465,-0.0025 1.298072,0.23516 2.942582,0.886369 4.054012,1.605346 1.76858,1.144091 3.3782,2.813877 4.55553,4.725821 l 0.37441,0.60804 0.44844,-0.113882 c 0.24664,-0.06263 0.69869,-0.132773 1.00456,-0.155863 0.75594,-0.05707 1.35708,0.07314 2.52447,0.546801 0.51434,0.208691 0.94618,0.368426 0.95964,0.354966 0.0135,-0.01346 -0.0484,-0.398002 -0.13737,-0.854538 -0.24826,-1.273203 -0.31259,-1.961142 -0.31262,-3.343064 -6e-5,-2.616727 0.57277,-5.23169 1.41883,-6.476999 0.17182,-0.252897 0.17243,-0.257841 0.14156,-1.13775 -0.0507,-1.446303 0.15381,-2.418697 0.73214,-3.480541 0.58336,-1.07106 1.67527,-2.23717 2.25843,-2.411889 0.21054,-0.06308 0.2766,-0.05618 0.47329,0.04943 0.23229,0.124727 0.69042,0.689143 0.91272,1.124471 l 0.12242,0.239726 0.26777,-0.184022 c 1.85414,-1.274243 4.46063,-2.405646 6.17327,-2.679643 2.29273,-0.366802 4.79691,0.49342 6.59951,2.26702 0.51408,0.505815 1.22269,1.396659 1.16045,1.458898 -0.0202,0.02016 -0.25993,-0.03637 -0.53281,-0.125629 -0.91231,-0.298405 -1.30727,-0.375177 -1.95701,-0.380397 -0.34945,-0.0028 -0.67176,0.01739 -0.71625,0.04489 -0.0545,0.03369 0.0926,0.158947 0.45135,0.384142 1.11865,0.702314 2.06099,1.596707 2.74893,2.609062 0.3889,0.572295 0.6266,0.983977 0.56814,0.983977 -0.0172,0 -0.21077,-0.09689 -0.43025,-0.215315 -0.5691,-0.307064 -1.38331,-0.54962 -1.38331,-0.412096 0,0.169662 0.73153,1.154059 1.1344,1.526522 0.72271,0.668171 1.51856,0.981418 2.90197,1.142228 l 0.6705,0.07794 -0.24206,0.150345 c -0.49758,0.309043 -1.50707,0.790027 -2.07147,0.986979 -0.5555,0.193841 -0.62792,0.203504 -1.50434,0.200717 -0.7868,-0.0025 -1.02699,-0.02886 -1.651,-0.18118 -0.40164,-0.09804 -0.80169,-0.191725 -0.889,-0.208194 l -0.15875,-0.02994 0.0194,0.752684 c 0.0225,0.872657 -0.0938,1.757007 -0.34065,2.591064 -0.093,0.314325 -0.17311,0.613255 -0.17795,0.66429 -0.006,0.05888 0.181,0.174905 0.51058,0.3175 0.28564,0.12359 0.61038,0.292274 0.72163,0.374854 0.1909,0.141699 0.20072,0.168862 0.17468,0.482939 -0.0382,0.460704 -0.39941,1.190139 -0.81319,1.642211 -1.22384,1.337092 -3.57163,2.021639 -6.24586,1.821114 -0.9319,-0.06988 -1.52958,-0.149641 -1.99493,-0.266234 -0.14977,-0.03753 -0.28515,-0.05539 -0.30085,-0.03969 -0.0157,0.01569 0.0411,0.369405 0.12612,0.786026 0.38219,1.87197 0.37934,3.894573 -0.007,5.075492 -0.31679,0.967944 -0.91719,1.970205 -1.72239,2.875219 l -0.47106,0.529454 -0.064,0.710664 c -0.12559,1.394987 0.0376,4.538533 0.3303,6.362163 0.18858,1.17497 0.39789,1.905386 0.91836,3.204688 0.52437,1.309066 0.57137,1.566182 0.33034,1.807212 -0.15432,0.154322 -0.63982,0.29035 -1.03629,0.29035 -0.19028,0 -0.21869,0.01753 -0.1801,0.111125 0.5244,1.271834 0.39521,1.5086 -0.95298,1.746541 -0.70047,0.123626 -3.559,0.09764 -4.15135,-0.03773 -0.64985,-0.14852 -0.88235,-0.272282 -1.01972,-0.542795 -0.35111,-0.691424 -0.46267,-2.813072 -0.32097,-6.10403 0.10867,-2.523745 0.38679,-4.418222 0.85285,-5.809356 0.117,-0.34925 0.20856,-0.638228 0.20346,-0.642174 -0.005,-0.0039 -0.56524,-0.05337 -1.24477,-0.109832 -1.14159,-0.09486 -1.24776,-0.09479 -1.397,9.4e-4 -0.32972,0.211504 -1.70006,1.655779 -1.99684,2.104578 -0.36811,0.556668 -0.6674,1.246711 -0.9217,2.125078 -0.33689,1.163589 -0.41271,1.694019 -0.41501,2.903159 -0.003,1.497994 0.0724,1.827061 0.79314,3.468133 0.15141,0.344749 0.14017,0.571281 -0.0371,0.748594 -0.17518,0.175181 -0.74264,0.299305 -1.52095,0.332689 -0.4191,0.01798 -0.79678,0.04344 -0.8393,0.0566 -0.0589,0.01822 -0.0551,0.07702 0.0159,0.246911 0.12039,0.28813 0.11927,0.733059 -0.002,0.90659 -0.11725,0.167402 -0.35711,0.24657 -1.0158,0.33528 -0.70043,0.09433 -2.55634,0.132031 -3.19236,0.06485 z"
       id="path99"
       sodipodi:nodetypes="cssssscssssssssscscsssccsssscssssscsssssssscssssssssssscssscsscsssccsscsssscssssssscsssssscssssscsscsssssssccscsssssssssssssssscscssscscc" />
  </g>
</svg>
